<?xml version="1.0" encoding="UTF-8" standalone="no"?>
<svg width="82px" height="82px" viewBox="0 0 82 82" version="1.1" xmlns="http://www.w3.org/2000/svg" xmlns:xlink="http://www.w3.org/1999/xlink">
    <!-- Generator: Sketch 3.7.2 (28276) - http://www.bohemiancoding.com/sketch -->
    <title>Mask</title>
    <desc>Created with Sketch.</desc>
    <defs></defs>
    <g id="Page-1" stroke="none" stroke-width="1" fill="none" fill-rule="evenodd">
        <g id="Mask" fill="#2C70B4">
            <path d="M41,82 C18.3563253,82 0,63.6436747 0,41 C0,18.3563253 18.3563253,0 41,0 C63.6436747,0 82,18.3563253 82,41 C82,63.6436747 63.6436747,82 41,82 Z M37.2708655,31.708755 C36.4119042,30.5563208 35.3455226,29.6510922 34.0723912,28.9908342 C32.7988128,28.3303526 31.3643049,28 29.7693145,28 C28.2348962,28 26.8160342,28.3073307 25.5122815,28.9213215 C24.2080818,29.5359829 23.0726346,30.4034378 22.1063869,31.5241331 C21.1399157,32.645499 20.3804177,33.9818846 19.82834,35.5319489 C19.2758153,37.0829072 19,38.7791491 19,40.6224627 C19,42.5270189 19.2679924,44.2543292 19.8050947,45.8043934 C20.3415264,47.3553517 21.1010244,48.6765384 22.083365,49.7661654 C23.0648116,50.85691 24.253455,51.7006725 25.6499656,52.3001349 C27.0460293,52.8993739 28.6188919,53.1988816 30.3672124,53.1988816 C31.9934947,53.1988816 33.596308,52.8598121 35.1769936,52.1848021 C36.7570086,51.5097922 38.0375159,50.5426504 39.0198566,49.2829298 L34.5098066,45.5060033 C34.0493693,46.0285772 33.4664468,46.4423002 32.7608156,46.7491839 C32.0547373,47.0569616 31.256795,47.2102917 30.3674359,47.2102917 C29.7849604,47.2102917 29.2094138,47.1253566 28.6416902,46.9563806 C28.0735196,46.7871811 27.5603332,46.5270117 27.1001195,46.1734138 C26.6396822,45.8209334 26.2556865,45.3522262 25.9499204,44.7677391 C25.6425897,44.1850401 25.4584148,43.4778442 25.3971722,42.6486101 L39.8484201,42.6486101 C39.8785944,42.4038631 39.9018398,42.1197778 39.9174857,41.7965777 C39.9329081,41.4749421 39.9407311,41.0828999 39.9407311,40.6224627 C39.9407311,38.9025284 39.7105125,37.2751285 39.2500752,35.7391456 C38.7896379,34.2038332 38.1298269,32.8600717 37.2708655,31.708755 Z M25.4892596,37.8584981 C25.6110743,36.6298458 26.010269,35.6014615 26.685726,34.7720039 C27.3602889,33.9425463 28.2809399,33.5279292 29.4472319,33.5279292 C30.1528632,33.5279292 30.76596,33.6513085 31.2880869,33.8969496 C31.8095433,34.1425906 32.2467351,34.4722726 32.5996625,34.8871132 C32.9521429,35.3017302 33.2205823,35.7621675 33.4052042,36.2690955 C33.5891556,36.776247 33.7116409,37.3055263 33.7733305,37.8584981 L25.4892596,37.8584981 Z M60.3566531,31.0632488 C59.4970212,30.0035726 58.4997052,29.2290993 57.3653755,28.7371466 C56.2290343,28.2463116 55.0180396,28 53.7283682,28 C52.5629703,28 51.5728066,28.2069733 50.7612301,28.6220373 C49.9471949,29.0364309 49.2339642,29.5049146 48.6201969,30.0270415 L48.6669111,28.5071515 L42.2688449,28.5071515 L42.2688449,61.5824159 L48.6669111,61.4746825 L48.6669111,51.3099713 C49.2475985,51.8325453 49.973346,52.2771131 50.8452711,52.6454629 C51.7169727,53.0142597 52.6885847,53.1991052 53.7585425,53.1991052 C55.2567517,53.1991052 56.5879965,52.8993739 57.7491478,52.3003585 C58.9125341,51.700896 59.8912986,50.8571335 60.6854411,49.766389 C61.4815952,48.676762 62.0853044,47.3785971 62.4976863,45.8743531 C62.9105153,44.370109 63.117712,42.7111938 63.117712,40.898725 C63.117712,38.6571108 62.8718475,36.7223803 62.3814595,35.094757 C61.8901774,33.4664631 61.2151674,32.1229251 60.3566531,31.0632488 Z M52.9467425,47.2102917 C51.1054405,47.2102917 49.6787555,46.5187417 48.6669111,45.1367594 L48.6669111,36.0160785 C49.1273484,35.4018642 49.6479107,34.9103586 50.2315037,34.5417852 C50.8133087,34.1732119 51.5967226,33.989037 52.5788397,33.989037 C53.8363251,33.989037 54.8410171,34.5417852 55.5926921,35.6468347 C56.3441436,36.7525546 56.7207634,38.5487069 56.7207634,41.0359622 C56.7207634,45.1524053 55.4619369,47.2102917 52.9467425,47.2102917 Z" id="Combined-Shape"></path>
        </g>
    </g>
</svg>